<?xml version="1.0" standalone="no"?>
<!DOCTYPE svg PUBLIC "-//W3C//DTD SVG 1.1//EN"
  "http://www.w3.org/Graphics/SVG/1.1/DTD/svg11.dtd">
<svg width="212mm" height="241.99999999999994mm" viewBox="-79 -74.99999999999999 212 241.99999999999994" xmlns="http://www.w3.org/2000/svg" version="1.1">
	<title>svgOutput</title>
	<desc>made with tinkercad</desc>
<path d="M 132 165.99999999999997 L 5.498000144958496 165.99999999999997 L -78 165.99999999999997 L -78 -73.99999999999999 L 5.498000144958496 -73.99999999999999 L 8.498000144958496 -73.99999999999999 L 45.50199890136719 -73.99999999999999 L 48.50299835205078 -73.99999999999999 L 132 -73.99999999999999 L 132 7.498000144958494 L 132 47.502998352050774 L 132 165.99999999999997 M 6.533999919891357 7.423999786376951 L 6.998000144958496 7.498000144958494 L 7.460999965667725 7.423999786376951 L 7.879000186920166 7.210999965667723 L 8.211000442504883 6.879000186920164 L 8.423999786376953 6.460999965667723 L 8.474665641784668 6.14400005340576 L 8.498000144958496 5.998000144958495 L 8.423999786376953 5.5339999198913565 L 8.211000442504883 5.116000175476073 L 7.879000186920166 4.7839999198913565 L 7.460999965667725 4.571000099182128 L 6.998000144958496 4.498000144958495 L 6.533999919891357 4.571000099182128 L 6.116000175476074 4.7839999198913565 L 5.783999919891357 5.116000175476073 L 5.571000099182129 5.5339999198913565 L 5.498000144958496 5.998000144958495 L 5.521019458770752 6.14400005340576 L 5.571000099182129 6.460999965667723 L 5.783999919891357 6.879000186920164 L 6.116000175476074 7.210999965667723 L 6.533999919891357 7.423999786376951 M 46.53900146484375 7.423999786376951 L 47.00199890136719 7.498000144958494 L 47.104000091552734 7.481732845306395 L 47.465999603271484 7.423999786376951 L 47.88399887084961 7.210999965667723 L 48.215999603271484 6.879000186920164 L 48.42900085449219 6.460999965667723 L 48.50299835205078 5.998000144958495 L 48.42900085449219 5.5339999198913565 L 48.215999603271484 5.116000175476073 L 47.88399887084961 4.7839999198913565 L 47.465999603271484 4.571000099182128 L 47.104000091552734 4.514047622680663 L 47.00199890136719 4.498000144958495 L 46.53900146484375 4.571000099182128 L 46.12099838256836 4.7839999198913565 L 45.78900146484375 5.116000175476073 L 45.57600021362305 5.5339999198913565 L 45.50199890136719 5.998000144958495 L 45.57600021362305 6.460999965667723 L 45.78900146484375 6.879000186920164 L 46.12099838256836 7.210999965667723 L 46.53900146484375 7.423999786376951 M 6.533999919891357 47.42900085449218 L 6.998000144958496 47.502998352050774 L 7.460999965667725 47.42900085449218 L 7.879000186920166 47.21599960327148 L 8.192000389099121 46.90299987792968 L 8.211000442504883 46.8839988708496 L 8.423999786376953 46.46599960327148 L 8.498000144958496 46.00199890136718 L 8.423999786376953 45.53900146484374 L 8.211000442504883 45.12099838256835 L 8.192000389099121 45.10200119018554 L 8.145999908447266 45.05599975585937 L 7.879000186920166 44.78900146484374 L 7.460999965667725 44.57600021362304 L 6.998000144958496 44.50199890136718 L 6.533999919891357 44.57600021362304 L 6.116000175476074 44.78900146484374 L 5.848999977111816 45.05599975585937 L 5.783999919891357 45.12099838256835 L 5.571000099182129 45.53900146484374 L 5.498000144958496 46.00199890136718 L 5.571000099182129 46.46599960327148 L 5.783999919891357 46.8839988708496 L 6.116000175476074 47.21599960327148 L 6.533999919891357 47.42900085449218 M 46.53900146484375 47.42900085449218 L 47.00199890136719 47.502998352050774 L 47.104000091552734 47.48673248291015 L 47.465999603271484 47.42900085449218 L 47.88399887084961 47.21599960327148 L 48.215999603271484 46.8839988708496 L 48.42900085449219 46.46599960327148 L 48.50299835205078 46.00199890136718 L 48.42900085449219 45.53900146484374 L 48.215999603271484 45.12099838256835 L 48.1510009765625 45.05599975585937 L 47.88399887084961 44.78900146484374 L 47.465999603271484 44.57600021362304 L 47.00199890136719 44.50199890136718 L 46.53900146484375 44.57600021362304 L 46.12099838256836 44.78900146484374 L 45.854000091552734 45.05599975585937 L 45.78900146484375 45.12099838256835 L 45.57600021362305 45.53900146484374 L 45.50199890136719 46.00199890136718 L 45.57600021362305 46.46599960327148 L 45.78900146484375 46.8839988708496 L 46.12099838256836 47.21599960327148 L 46.53900146484375 47.42900085449218 z" fill="none" stroke="rgb(255,0,0)" stroke-width="0.001mm" />
</svg>