<?xml version="1.0" standalone="no"?>
<!DOCTYPE svg PUBLIC "-//W3C//DTD SVG 1.1//EN"
  "http://www.w3.org/Graphics/SVG/1.1/DTD/svg11.dtd">
<svg width="292mm" height="352.49999999999994mm" viewBox="-136 -165.99999999999997 292 352.49999999999994" xmlns="http://www.w3.org/2000/svg" version="1.1">
	<title>svgOutput</title>
	<desc>made with tinkercad</desc>
<path d="M -118 -97.99999999999997 L -118 -122.99999999999997 L -68 -122.99999999999997 L -68 -97.99999999999997 L -118 -97.99999999999997 M 135 -122.99999999999997 L 135 -97.99999999999997 L 85 -97.99999999999997 L 85 -98.00299835205075 L 85 -122.99999999999997 L 135 -122.99999999999997 M -14.998000144958496 -94.99999999999999 L -14.998000144958496 -98.00299835205075 L -61.99800109863281 -98.00299835205075 L -61.99800109863281 -130.00300598144528 L -65 -130.00300598144528 L -65 -164.99999999999997 L -61.99800109863281 -164.99999999999997 L 81.99800109863281 -164.99999999999997 L 85 -164.99999999999997 L 85 -130.00300598144528 L 81.99800109863281 -130.00300598144528 L 81.99800109863281 -98.00299835205075 L 34.99800109863281 -98.00299835205075 L 34.99800109863281 -94.99999999999999 L -14.998000144958496 -94.99999999999999 M -118 143.99999999999997 L -118 118.99999999999997 L -68 118.99999999999997 L -68 143.99999999999997 L -118 143.99999999999997 M 135 118.99999999999997 L 135 143.99999999999997 L 85 143.99999999999997 L 85 118.99999999999997 L 135 118.99999999999997 M 34.99800109863281 115.49999999999997 L 34.99800109863281 118.50299835205075 L 81.99800109863281 118.50299835205075 L 81.99800109863281 150.50300598144528 L 85 150.50300598144528 L 85 185.49999999999997 L 81.99800109863281 185.49999999999997 L -61.99800109863281 185.49999999999997 L -65 185.49999999999997 L -65 150.50300598144528 L -61.99800109863281 150.50300598144528 L -61.99800109863281 118.50299835205075 L -14.998000144958496 118.50299835205075 L -14.998000144958496 115.49999999999997 L 34.99800109863281 115.49999999999997 M 85 114.99999999999997 L 85 111.99800109863278 L 85 102.00299835205075 L 85 71.9980010986328 L 85 45.002998352050774 L 88.00299835205078 45.002998352050774 L 88.00299835205078 -25.003000259399407 L 85 -25.003000259399407 L 85 -91.9980010986328 L 85 -94.99999999999999 L 119.99800109863281 -94.99999999999999 L 119.99800109863281 -91.9980010986328 L 155 -91.9980010986328 L 155 -25.003000259399407 L 155 45.002998352050774 L 155 71.9980010986328 L 155 102.00299835205075 L 155 111.99800109863278 L 119.99800109863281 111.99800109863278 L 119.99800109863281 114.99999999999997 L 85 114.99999999999997 M -68.00299835205078 -94.99999999999999 L -68.00299835205078 -91.9980010986328 L -68.00299835205078 -24.997999191284173 L -65 -24.997999191284173 L -65 44.998001098632805 L -68.00299835205078 44.998001098632805 L -68.00299835205078 111.99800109863278 L -68.00299835205078 114.99999999999997 L -99.99800109863281 114.99999999999997 L -99.99800109863281 111.99800109863278 L -135 111.99800109863278 L -135 44.998001098632805 L -135 -24.997999191284173 L -135 -91.9980010986328 L -99.99800109863281 -91.9980010986328 L -99.99800109863281 -94.99999999999999 L -68.00299835205078 -94.99999999999999 M 85 44.998001098632805 L 81.99800109863281 44.998001098632805 L 81.99800109863281 45.002998352050774 L 81.99800109863281 111.99800109863278 L 81.99800109863281 114.99999999999997 L 35.00299835205078 114.99999999999997 L 35.00299835205078 111.99800109863278 L -15.003000259399414 111.99800109863278 L -15.003000259399414 114.99999999999997 L -65 114.99999999999997 L -65 111.99800109863278 L -65 45.002998352050774 L -61.99800109863281 45.002998352050774 L -61.99800109863281 44.998001098632805 L -61.99800109863281 -24.997999191284173 L -61.99800109863281 -25.003000259399407 L -65 -25.003000259399407 L -65 -91.9980010986328 L -65 -94.99999999999999 L -15.003000259399414 -94.99999999999999 L -15.003000259399414 -91.9980010986328 L 35.00299835205078 -91.9980010986328 L 35.00299835205078 -94.99999999999999 L 81.99800109863281 -94.99999999999999 L 81.99800109863281 -91.9980010986328 L 81.99800109863281 -25.003000259399407 L 81.99800109863281 -24.997999191284173 L 85 -24.997999191284173 L 85 44.998001098632805 M 89.99800109863281 71.9980010986328 L 89.99800109863281 102.00299835205075 L 120.00299835205078 102.00299835205075 L 120.00299835205078 71.9980010986328 L 89.99800109863281 71.9980010986328 z" fill="none" stroke="rgb(255,0,0)" stroke-width="0.001mm" />
</svg>